<svg xmlns="http://www.w3.org/2000/svg" version="1.1" xmlns:xlink="http://www.w3.org/1999/xlink" xmlns:svgjs="http://svgjs.dev/svgjs" width="1000" height="1000"><g clip-path="url(#SvgjsClipPath1229)"><rect width="1000" height="1000" fill="#1c1c1d"></rect><g transform="matrix(2.536231884057971,0,0,2.536231884057971,150,322.463768115942)"><svg xmlns="http://www.w3.org/2000/svg" version="1.1" xmlns:xlink="http://www.w3.org/1999/xlink" xmlns:svgjs="http://svgjs.dev/svgjs" width="276" height="140"><svg width="276" height="140" viewBox="0 0 276 140" fill="none" xmlns="http://www.w3.org/2000/svg">
<rect x="80.563" y="27.9922" width="27.7147" height="95.5735" rx="13.8574" fill="#C1EF00"></rect>
<rect x="160.896" y="4.79883" width="27.7147" height="130.764" rx="13.8574" fill="#C1EF00"></rect>
<rect x="204.273" y="16.3965" width="27.7147" height="109.17" rx="13.8574" fill="#FF5045"></rect>
<rect x="0.22998" y="68.7793" width="27.7147" height="54.7848" rx="13.8574" fill="#FF5045"></rect>
<rect x="40.3945" y="56.7832" width="27.7147" height="83.1769" rx="13.8574" fill="#C1EF00"></rect>
<path d="M120.729 70.6406C120.729 62.9874 126.933 56.7832 134.586 56.7832C142.24 56.7832 148.444 62.9874 148.444 70.6406V121.704C148.444 129.357 142.24 135.561 134.586 135.561C126.933 135.561 120.729 129.357 120.729 121.704V70.6406Z" fill="#FF5045"></path>
<rect x="247.653" width="28.1164" height="132.363" rx="14.0582" fill="#C1EF00"></rect>
</svg></svg></g></g><defs><clipPath id="SvgjsClipPath1229"><rect width="1000" height="1000" x="0" y="0" rx="250" ry="250"></rect></clipPath></defs></svg>