<svg width="48" height="48" viewBox="0 0 48 48" fill="none" xmlns="http://www.w3.org/2000/svg">
<path d="M27.8594 16.39V31.39C27.8594 33.06 28.9994 34 30.2494 34C31.3894 34 32.6394 33.21 32.6394 31.39V16.5C32.6394 14.96 31.4994 14 30.2494 14C28.9994 14 27.8594 15.06 27.8594 16.39ZM21.6094 24V31.39C21.6094 33.07 22.7694 34 23.9994 34C25.1394 34 26.3894 33.21 26.3894 31.39V24.11C26.3894 22.57 25.2494 21.61 23.9994 21.61C22.7494 21.61 21.6094 22.67 21.6094 24ZM17.7494 29.23C19.0694 29.23 20.1394 30.3 20.1394 31.61C20.1394 32.2439 19.8876 32.8518 19.4394 33.3C18.9911 33.7482 18.3832 34 17.7494 34C17.1155 34 16.5076 33.7482 16.0594 33.3C15.6112 32.8518 15.3594 32.2439 15.3594 31.61C15.3594 30.3 16.4294 29.23 17.7494 29.23Z" fill="white"/>
</svg>
