<svg width="22" height="22" viewBox="0 0 22 22" fill="none" xmlns="http://www.w3.org/2000/svg">
<path d="M11 0C17.0751 0 22 4.92487 22 11C22 17.0751 17.0751 22 11 22C4.92487 22 0 17.0751 0 11C0 4.92487 4.92487 0 11 0ZM11 2C6.02944 2 2 6.02944 2 11C2 15.9706 6.02944 20 11 20C15.9706 20 20 15.9706 20 11C20 6.02944 15.9706 2 11 2ZM14.793 7.29297C15.1835 6.90244 15.8165 6.90244 16.207 7.29297C16.5976 7.68349 16.5976 8.31651 16.207 8.70703L10.207 14.707C9.81651 15.0976 9.18349 15.0976 8.79297 14.707L5.79297 11.707C5.40244 11.3165 5.40244 10.6835 5.79297 10.293C6.18349 9.90244 6.81651 9.90244 7.20703 10.293L9.5 12.5859L14.793 7.29297Z" fill="#C1EF00"/>
</svg>
