<svg width="22" height="22" viewBox="0 0 22 22" fill="none" xmlns="http://www.w3.org/2000/svg">
<path d="M20 11C20 6.02944 15.9706 2 11 2C6.02944 2 2 6.02944 2 11C2 15.9706 6.02944 20 11 20C15.9706 20 20 15.9706 20 11ZM13.293 7.29297C13.6835 6.90244 14.3165 6.90244 14.707 7.29297C15.0976 7.68349 15.0976 8.31651 14.707 8.70703L12.4141 11L14.707 13.293L14.7754 13.3691C15.0957 13.7619 15.0731 14.3409 14.707 14.707C14.3409 15.0731 13.7619 15.0957 13.3691 14.7754L13.293 14.707L11 12.4141L8.70703 14.707C8.31651 15.0976 7.68349 15.0976 7.29297 14.707C6.90244 14.3165 6.90244 13.6835 7.29297 13.293L9.58594 11L7.29297 8.70703L7.22461 8.63086C6.90426 8.23809 6.92685 7.65908 7.29297 7.29297C7.65908 6.92685 8.23809 6.90426 8.63086 7.22461L8.70703 7.29297L11 9.58594L13.293 7.29297ZM22 11C22 17.0751 17.0751 22 11 22C4.92487 22 0 17.0751 0 11C0 4.92487 4.92487 0 11 0C17.0751 0 22 4.92487 22 11Z" fill="#FF5045"/>
</svg>
