<svg width="48" height="48" viewBox="0 0 48 48" fill="none" xmlns="http://www.w3.org/2000/svg">
<path fill-rule="evenodd" clip-rule="evenodd" d="M21.5176 16.0718C21.2954 16.0122 20.9944 16.0036 20 16.0036C19.3096 16.0036 18.6157 15.9828 17.9266 16.0299C17.5592 16.0549 17.3681 16.1006 17.2346 16.1559C16.7446 16.3589 16.3552 16.7482 16.1522 17.2383C16.0969 17.3718 16.0513 17.5628 16.0262 17.9302C16.0005 18.3067 16 18.791 16 19.5036V28.5036C16 29.2162 16.0005 29.7006 16.0262 30.077C16.0513 30.4445 16.0969 30.6355 16.1522 30.769C16.3552 31.2591 16.7446 31.6484 17.2346 31.8514C17.3681 31.9067 17.5591 31.9523 17.9266 31.9774C18.6157 32.0244 19.3096 32.0036 20 32.0036C20.9944 32.0036 21.2954 31.995 21.5176 31.9355C22.2078 31.7506 22.7469 31.2115 22.9319 30.5213C22.9914 30.299 23 29.998 23 29.0036C23 28.4514 23.4477 28.0036 24 28.0036C24.5523 28.0036 25 28.4514 25 29.0036C25 29.8692 25.0086 30.4982 24.8637 31.0389C24.4938 32.4193 23.4156 33.4975 22.0353 33.8673C21.4946 34.0122 20.8656 34.0036 20 34.0036C19.2641 34.0036 18.525 34.0229 17.7905 33.9728C17.3212 33.9408 16.8871 33.8722 16.4693 33.6992C15.4892 33.2932 14.7105 32.5145 14.3045 31.5344C14.1314 31.1166 14.0629 30.6825 14.0309 30.2132C14 29.7606 14 29.2077 14 28.5379V19.4694C14 18.7996 14 18.2467 14.0309 17.7941C14.0629 17.3248 14.1314 16.8907 14.3045 16.4729C14.7105 15.4928 15.4892 14.7141 16.4693 14.3081C16.8871 14.1351 17.3212 14.0665 17.7905 14.0345C18.525 13.9844 19.2641 14.0036 20 14.0036C20.8656 14.0036 21.4946 13.995 22.0353 14.1399C23.4156 14.5098 24.4938 15.588 24.8637 16.9684C25.0086 17.5091 25 18.138 25 19.0036C25 19.5559 24.5523 20.0036 24 20.0036C23.4477 20.0036 23 19.5559 23 19.0036C23 18.0093 22.9914 17.7083 22.9319 17.486C22.7469 16.7958 22.2078 16.2567 21.5176 16.0718ZM27.2929 18.2965C27.6834 17.906 28.3166 17.906 28.7071 18.2965L33.7071 23.2965C34.0976 23.6871 34.0976 24.3202 33.7071 24.7107L28.7071 29.7107C28.3166 30.1013 27.6834 30.1013 27.2929 29.7107C26.9024 29.3202 26.9024 28.6871 27.2929 28.2965L30.5858 25.0036H21C20.4477 25.0036 20 24.5559 20 24.0036C20 23.4514 20.4477 23.0036 21 23.0036H30.5858L27.2929 19.7107C26.9024 19.3202 26.9024 18.6871 27.2929 18.2965Z" fill="white"/>
</svg>
