<svg width="48" height="48" viewBox="0 0 48 48" fill="none" xmlns="http://www.w3.org/2000/svg">
<rect width="48" height="48" rx="12" fill="#141415"/>
<path fill-rule="evenodd" clip-rule="evenodd" d="M16.2968 14C21.2746 14.0002 26.2523 14 31.23 14C31.7585 14 32.2217 14 32.5852 14.0326C32.9339 14.064 33.4125 14.1376 33.8002 14.4578C34.2819 14.8554 34.55 15.4553 34.5253 16.0794C34.5053 16.5818 34.2411 16.9876 34.0319 17.2684C33.8139 17.561 33.505 17.9062 33.1526 18.3L27.4163 24.7112C27.2521 24.8947 27.2634 24.8651 27.2634 25.1113C27.2634 26.906 27.2445 28.7019 27.2637 30.4964C27.2652 30.6339 27.2682 30.9193 27.1688 31.1858C27.0852 31.4099 26.9492 31.6108 26.7722 31.7716C26.5617 31.9629 26.2956 32.0661 26.1674 32.1158C25.0084 32.5652 23.8583 33.0391 22.7041 33.5008C22.5452 33.5644 22.3695 33.6347 22.2146 33.681C22.0479 33.7307 21.7741 33.7957 21.4582 33.7301C21.0712 33.6497 20.7316 33.4197 20.5132 33.0903C20.3349 32.8214 20.2936 32.543 20.2779 32.3698C20.2633 32.2088 20.2634 32.0196 20.2634 31.8484L20.2634 25.1113C20.2634 24.882 20.263 24.8816 20.1106 24.7112C18.1985 22.5742 16.2865 20.437 14.3742 18.3001C14.0218 17.9062 13.7129 17.561 13.4949 17.2684C13.2858 16.9876 13.0215 16.5818 13.0016 16.0794C12.9768 15.4553 13.245 14.8554 13.7266 14.4578C14.1144 14.1376 14.5929 14.064 14.9417 14.0326C15.3051 14 15.7684 14 16.2968 14ZM15.0671 16.03C15.0766 16.0434 15.0872 16.058 15.0989 16.0736C15.2564 16.2851 15.5034 16.5626 15.8948 17.0001C17.8073 19.1376 19.7147 21.2799 21.6325 23.4127C21.7501 23.5434 21.8981 23.708 22.008 23.9041C22.1033 24.0742 22.1733 24.2573 22.2157 24.4476C22.2645 24.667 22.2639 24.8884 22.2635 25.0642C22.2581 27.2171 22.2634 29.3701 22.2634 31.523L25.2634 30.323C25.2634 28.5701 25.2677 26.8171 25.2633 25.0642C25.2629 24.8884 25.2624 24.667 25.3112 24.4476C25.3535 24.2573 25.4235 24.0742 25.5188 23.9041C25.6287 23.708 25.7768 23.5434 25.8943 23.4127C27.8122 21.2799 29.7195 19.1376 31.632 17.0001C32.0235 16.5626 32.2704 16.2851 32.428 16.0736C32.4396 16.058 32.4502 16.0434 32.4598 16.03C32.4434 16.0282 32.4255 16.0263 32.4061 16.0246C32.1434 16.001 31.7719 16 31.1849 16H16.342C15.7549 16 15.3834 16.001 15.1208 16.0246C15.1013 16.0263 15.0835 16.0282 15.0671 16.03Z" fill="#C1EF00"/>
</svg>
