<svg width="60" height="60" viewBox="0 0 60 60" fill="none" xmlns="http://www.w3.org/2000/svg">
<rect x="0.5" y="0.5" width="59" height="59" rx="11.5" stroke="white" stroke-opacity="0.35"/>
<g clip-path="url(#clip0_200_12986)">
<path d="M38.9827 30.2679H38.1062C38.092 30.2689 38.0786 30.275 38.0686 30.2851C38.0585 30.2951 38.0524 30.3085 38.0514 30.3227V33.1035C37.86 33.1583 37.668 33.1857 37.4492 33.1857C36.874 33.1857 36.7371 33.0078 36.7371 32.2406V30.3227C36.7361 30.3085 36.73 30.2951 36.72 30.2851C36.7099 30.275 36.6965 30.2689 36.6823 30.2679H35.8065C35.7923 30.2689 35.7789 30.275 35.7689 30.2851C35.7588 30.2951 35.7527 30.3085 35.7517 30.3227V32.3366C35.7517 33.5965 36.1761 34.0763 37.2575 34.0763C37.8736 34.0763 38.5718 33.912 38.9827 33.7612C38.9962 33.7473 39.0097 33.7338 39.0097 33.7199V30.323C39.0371 30.2957 39.0097 30.2683 38.9827 30.2683V30.2679ZM20.4185 30.2818H19.5285C19.5011 30.2818 19.4876 30.2953 19.4876 30.3227C19.3506 30.8705 19.0632 31.802 18.6798 32.7748L17.7901 30.3092C17.7762 30.2953 17.7627 30.2818 17.7489 30.2818H16.8453C16.8315 30.2818 16.818 30.2953 16.8041 30.3092C16.7906 30.3227 16.7906 30.3366 16.8041 30.3501L18.1458 34.0215C18.0267 34.2724 17.8988 34.5191 17.7624 34.761C17.6667 34.9253 17.5845 35.0897 17.5024 35.2679C17.4888 35.2817 17.4888 35.2953 17.5024 35.3091C17.5162 35.3226 17.5297 35.3365 17.5436 35.3365H18.5154C18.5293 35.3365 18.5567 35.3226 18.5567 35.3091C18.7587 34.9144 18.946 34.5124 19.118 34.1037C19.6928 32.761 20.1446 31.5008 20.4871 30.3501C20.4871 30.3366 20.4871 30.3227 20.4732 30.3092C20.4459 30.2818 20.4323 30.2818 20.4185 30.2818ZM23.6085 33.1035C23.608 33.0964 23.605 33.0897 23.5999 33.0846C23.5949 33.0796 23.5882 33.0766 23.5811 33.0761H23.5398C23.3207 33.1583 22.9237 33.2131 22.6499 33.2131C22.0341 33.2131 21.7463 33.0487 21.7463 32.1175C21.7463 31.3638 21.8424 31.0213 22.6499 31.0213C22.8828 31.0213 23.0881 31.0487 23.362 31.1309C23.3894 31.1309 23.4029 31.1309 23.4167 31.1035L23.7725 30.3914V30.3501C23.772 30.343 23.769 30.3363 23.7639 30.3312C23.7589 30.3262 23.7522 30.3232 23.7451 30.3227C23.3677 30.2081 22.9759 30.148 22.5815 30.1445C21.3084 30.1445 20.7333 30.7474 20.7333 32.1036C20.7333 33.4734 21.3084 34.0898 22.5815 34.0898C22.8964 34.0898 23.5398 34.0215 23.8411 33.8981C23.8685 33.8842 23.882 33.8569 23.8685 33.8295L23.6085 33.1035ZM31.9456 30.2818H31.056C31.0286 30.2818 31.0147 30.2953 31.0147 30.3227C30.8778 30.8844 30.5904 31.802 30.2069 32.7748L29.3173 30.3092C29.3034 30.2953 29.2899 30.2818 29.276 30.2818H28.3725C28.359 30.2818 28.3451 30.2953 28.3316 30.3092C28.3177 30.3227 28.3177 30.3366 28.3316 30.3501L29.673 34.0215C29.5539 34.2724 29.426 34.5191 29.2896 34.761C29.1939 34.9253 29.1117 35.0897 29.0295 35.2679C29.016 35.2817 29.016 35.2953 29.0295 35.3091C29.0434 35.3226 29.0569 35.3365 29.0708 35.3365H30.0426C30.0564 35.3365 30.0838 35.3226 30.0838 35.3091C30.2859 34.9144 30.4732 34.5124 30.6452 34.1037C31.2065 32.761 31.6718 31.5008 32.0143 30.3501C32.0143 30.3366 32.0143 30.3227 32.0004 30.3092C31.973 30.2818 31.9595 30.2818 31.9456 30.2818ZM35.2313 30.2679H32.6439C32.6297 30.2689 32.6163 30.275 32.6062 30.2851C32.5962 30.2951 32.5901 30.3085 32.5891 30.3227V33.9255C32.5891 33.9529 32.6165 33.9803 32.6439 33.9803H33.5203C33.5474 33.9803 33.5751 33.9529 33.5751 33.9255V31.1309H34.9301C34.9439 31.1309 34.9713 31.1173 34.9713 31.1035C35.0809 30.857 35.1766 30.5966 35.2861 30.3366V30.2953C35.2587 30.2818 35.2452 30.2679 35.2313 30.2679Z" fill="white"/>
<path d="M21.4574 24.7346C20.1979 24.7346 19.7052 25.2823 19.7052 26.666C19.7052 28.077 20.1982 28.6251 21.4574 28.6251C22.7305 28.6251 23.2232 28.077 23.2232 26.666C23.2232 25.2823 22.7305 24.7346 21.4574 24.7346ZM21.4574 27.8305C20.8826 27.8305 20.7044 27.6797 20.7044 26.6933C20.7044 25.6526 20.8961 25.5565 21.4574 25.5565C22.0326 25.5565 22.2243 25.6522 22.2243 26.6933C22.2243 27.6661 22.0461 27.8305 21.4574 27.8305ZM26.7283 27.6797C26.7279 27.6726 26.7248 27.6658 26.7198 27.6608C26.7148 27.6558 26.7081 27.6527 26.7009 27.6523H26.6597C26.4406 27.7344 26.0436 27.7892 25.77 27.7892C25.154 27.7892 24.8662 27.6249 24.8662 26.6937C24.8662 25.9397 24.9484 25.5975 25.77 25.5975C26.0027 25.5975 26.2083 25.6249 26.4818 25.707C26.5092 25.707 26.5228 25.707 26.5366 25.6796L26.8923 24.9675V24.9263C26.8919 24.9192 26.8889 24.9125 26.8838 24.9074C26.8788 24.9024 26.8721 24.8993 26.865 24.8989C26.4877 24.7843 26.096 24.7242 25.7017 24.7207C24.4283 24.7207 23.8531 25.3233 23.8531 26.6798C23.8531 28.0493 24.4283 28.666 25.7014 28.666C26.0162 28.666 26.6597 28.5974 26.961 28.4743C26.9884 28.4604 27.0019 28.433 26.9884 28.4056L26.7283 27.6797ZM16.8438 24.8441C16.8296 24.8451 16.8163 24.8512 16.8062 24.8612C16.7961 24.8713 16.79 24.8847 16.7891 24.8989V28.5013C16.7891 28.529 16.8165 28.5561 16.8438 28.5561H17.7203C17.7474 28.5561 17.7751 28.529 17.7751 28.5013V25.707H19.13C19.1439 25.707 19.1713 25.6935 19.1713 25.6796C19.2808 25.4331 19.3765 25.1728 19.4861 24.9127V24.8715C19.4722 24.8576 19.4587 24.8441 19.4448 24.8441H16.8438Z" fill="white"/>
<path fill-rule="evenodd" clip-rule="evenodd" d="M43.0745 33.598V33.5432C43.0745 33.5158 43.0745 33.4745 43.0883 33.4472C43.1293 32.9403 43.1566 32.3239 43.184 31.6115V31.5567L43.2114 30.0226C43.2114 29.4883 43.1979 28.9676 43.184 28.4882V28.4334L43.0883 26.598C43.0883 26.5703 43.0883 26.5294 43.0745 26.502V26.4472C43.0745 26.3924 43.0609 26.3512 43.0609 26.2964V26.2416C43.0197 25.7074 42.9923 25.3787 42.9788 25.3513C42.9788 25.2965 42.9649 25.2418 42.9649 25.2005V25.1596C42.9533 25.0671 42.935 24.9756 42.9101 24.8857C42.9101 24.8719 42.9101 24.858 42.8966 24.8445C42.664 23.7347 42.0479 22.5158 41.281 21.5978C40.98 21.2417 40.6649 20.9266 40.3366 20.6801C39.0997 19.7681 37.8154 18.9221 36.4892 18.1458C34.4769 16.9539 32.6699 16.1319 32.4373 16.0223C32.4234 16.0223 32.4234 16.0088 32.4234 16.0088C31.8895 15.7758 31.246 15.6115 30.5481 15.5432C30.4111 15.5293 30.2742 15.5158 30.1373 15.5158C30.0138 15.5158 29.8908 15.502 29.7677 15.502H29.5759C28.6312 15.5158 27.7689 15.6937 27.0842 16.0088C26.9746 16.0501 25.1541 16.8853 23.0867 18.091L23.0045 18.1319C21.6836 18.9215 20.3999 19.7718 19.1575 20.6801C18.6375 21.0635 18.1719 21.5565 17.7475 22.1868C17.6518 22.3376 17.6518 22.6936 18.0623 22.6936H19.1166C19.5684 22.6936 19.6779 22.4197 20.1845 22.0498C20.7458 21.639 21.8545 20.817 23.8807 19.6116C25.3455 18.7487 26.7146 18.0772 27.3716 17.762C27.3855 17.762 27.399 17.7485 27.4129 17.7485C27.4129 17.7485 27.4264 17.7485 27.4264 17.735C27.4264 17.735 27.4403 17.735 27.4403 17.7211C27.4538 17.7211 27.4676 17.7076 27.4676 17.7076C27.4812 17.7076 27.495 17.6937 27.5086 17.6937C27.6729 17.6115 27.7825 17.5703 27.7825 17.5703C28.2481 17.365 28.9051 17.2281 29.603 17.2142H29.8769C30.0825 17.2142 30.2877 17.2281 30.4795 17.2555C30.9038 17.3103 31.2873 17.3924 31.6021 17.5294C31.6295 17.5429 31.6704 17.5568 31.6978 17.5703C33.035 18.1925 34.3417 18.8782 35.6134 19.6251C36.8855 20.3757 38.1191 21.1896 39.3096 22.0637C39.5697 22.2554 39.83 22.5293 40.0765 22.8306C40.6923 23.6252 41.1988 24.7075 41.281 25.543C41.281 25.5569 41.3222 25.8856 41.3632 26.4472C41.3632 26.4881 41.3632 26.5155 41.377 26.5568V26.6389C41.377 26.6937 41.3905 26.7349 41.3905 26.7897V26.8445C41.3905 26.8719 41.3905 26.9128 41.4044 26.9402C41.4044 27.0088 41.4179 27.0771 41.4179 27.1458C41.4179 27.187 41.4179 27.2279 41.4318 27.2692V27.2966C41.4318 27.3514 41.4318 27.3923 41.4453 27.4471V27.5566C41.5378 29.1903 41.5378 30.8272 41.4453 32.4608V32.5704C41.4453 32.6252 41.4453 32.6664 41.4318 32.7212V32.7486C41.4318 32.7895 41.4318 32.8307 41.4179 32.8717C41.4179 32.9403 41.4044 33.0089 41.4044 33.0772C41.4044 33.1185 41.4044 33.1459 41.3905 33.1733V33.228C41.3905 33.2828 41.377 33.3237 41.377 33.3785V33.461C41.377 33.5019 41.377 33.5432 41.3632 33.5706C41.3222 34.1322 41.281 34.4744 41.281 34.4744C41.1988 35.3102 40.6923 36.3923 40.0762 37.1869C39.83 37.502 39.5697 37.7624 39.3096 37.9538C39.2961 37.9538 38.94 38.228 38.3513 38.6388C36.2646 40.0866 34.0568 41.3517 31.7526 42.4198L31.6978 42.4471C31.6704 42.461 31.6295 42.4745 31.6021 42.4884C31.2873 42.6115 30.9038 42.7075 30.4795 42.7623C30.2877 42.7897 30.0825 42.8032 29.8769 42.8032H29.603C28.9051 42.7897 28.2481 42.6663 27.7825 42.4471C27.7825 42.4471 27.6868 42.4062 27.5086 42.3237C27.495 42.3102 27.4676 42.3102 27.4538 42.2963C27.4403 42.2828 27.4264 42.2828 27.4129 42.269C27.399 42.269 27.399 42.2554 27.3855 42.2554C27.3716 42.2554 27.3581 42.2416 27.3446 42.2416C27.3307 42.228 27.3172 42.228 27.2898 42.2142H27.2759C26.114 41.6611 24.9765 41.0578 23.8668 40.4062C21.8271 39.2143 20.7319 38.3788 20.1709 37.9676C19.6641 37.5977 19.5545 37.3238 19.1028 37.3238H18.0623C17.6518 37.3238 17.6518 37.6802 17.7475 37.8168C18.1719 38.4474 18.6375 38.9404 19.1575 39.3238C19.2262 39.3786 20.8962 40.6114 23.0049 41.8581C23.1141 41.9268 23.2237 41.9951 23.3467 42.0498C25.3046 43.1731 26.9885 43.9403 27.0845 43.9951C27.7551 44.2964 28.6312 44.4746 29.5624 44.502H29.7538C29.8772 44.502 30.0003 44.502 30.1234 44.4881C30.2603 44.4881 30.3973 44.4746 30.5342 44.4607C31.2325 44.3924 31.8895 44.2281 32.4096 43.9951C32.4096 43.9951 32.4234 43.9951 32.4234 43.9816C32.6561 43.872 34.4631 43.0362 36.4757 41.8581C37.4402 41.2871 38.3854 40.6839 39.3096 40.0498L40.3227 39.3238C40.6514 39.0773 40.9662 38.7622 41.2675 38.4062C42.0343 37.4881 42.6501 36.2692 42.8828 35.1594C42.8828 35.1459 42.8828 35.1321 42.8966 35.1185C42.9101 35.0225 42.9375 34.9265 42.9514 34.8446V34.8031C42.9649 34.7483 42.9649 34.6935 42.9649 34.6523C42.9649 34.6249 43.0062 34.2962 43.0471 33.762V33.7072C43.0745 33.6933 43.0745 33.6389 43.0745 33.598Z" fill="white"/>
<path d="M27.6306 30.2695H24.9471C24.9197 30.2695 24.9062 30.2834 24.8923 30.3108C24.824 31.5297 24.5914 32.8312 24.2627 33.8997C24.2627 33.9132 24.2627 33.9271 24.2762 33.9406C24.2901 33.9545 24.3036 33.9545 24.3175 33.9545H25.2348C25.2619 33.9545 25.2758 33.9406 25.2758 33.9271C25.5358 33.1054 25.7414 32.0366 25.8235 31.1324H26.6997V33.9132C26.6997 33.9406 26.7271 33.968 26.7544 33.968H27.6306C27.658 33.968 27.6853 33.9406 27.6853 33.9132V30.3108C27.6853 30.2969 27.658 30.2695 27.6306 30.2695Z" fill="white"/>
</g>
<defs>
<clipPath id="clip0_200_12986">
<rect width="29" height="29" fill="white" transform="translate(15.5 15.5)"/>
</clipPath>
</defs>
</svg>
