<svg width="25" height="26" viewBox="0 0 25 26" fill="none" xmlns="http://www.w3.org/2000/svg">
<g clip-path="url(#clip0_220_13882)">
<path fill-rule="evenodd" clip-rule="evenodd" d="M11.9996 4.34609L20.7724 8.73248C17.8482 10.1946 14.9239 11.6567 11.9996 13.1189C9.07538 11.6567 6.15113 10.1946 3.22687 8.73248L11.9996 4.34609ZM2.96013 11.1257L0.194927 9.74313C-0.187878 9.55172 -0.429688 9.16047 -0.429688 8.73248C-0.429688 8.30449 -0.187878 7.91323 0.194927 7.72183L11.0901 2.27427C11.1797 2.22944 11.4173 2.09921 11.6871 2.0486C11.8937 2.00984 12.1056 2.00984 12.3122 2.0486C12.5819 2.09921 12.8196 2.22945 12.9092 2.27427L23.8044 7.72183C24.1872 7.91323 24.429 8.30449 24.429 8.73248C24.429 9.16047 24.1872 9.55172 23.8044 9.74313L21.0392 11.1257C21.0392 13.1855 21.0315 15.2454 21.0394 17.3051C21.0406 17.617 21.042 18.009 20.9156 18.3755C20.8064 18.6922 20.6282 18.9806 20.3938 19.2199C20.1225 19.4968 19.7712 19.6708 19.4918 19.8092C17.4285 20.8311 15.3728 21.8685 13.3135 22.8981C13.0757 23.0171 12.7638 23.1844 12.4164 23.2496C12.1409 23.3012 11.8583 23.3012 11.5829 23.2496C11.2354 23.1844 10.9237 23.0171 10.6858 22.8981C8.62646 21.8685 6.57076 20.8311 4.50753 19.8092C4.22804 19.6708 3.87676 19.4968 3.60551 19.2199C3.37112 18.9806 3.19287 18.6922 3.08364 18.3755C2.95724 18.009 2.95873 17.617 2.95991 17.3051C2.96773 15.2454 2.96013 13.1855 2.96013 11.1257ZM5.22001 12.2557V17.2196C5.22001 17.696 5.16869 17.613 5.59478 17.826L11.6964 20.8768C12.0344 21.0458 11.9649 21.0458 12.3028 20.8768L18.4045 17.826C18.8306 17.613 18.7793 17.696 18.7793 17.2196V12.2557L12.9092 15.1907C12.8196 15.2355 12.5819 15.3658 12.3122 15.4164C12.1056 15.4551 11.8937 15.4551 11.6871 15.4164C11.4173 15.3658 11.1797 15.2355 11.0901 15.1907L5.22001 12.2557Z" fill="white"/>
</g>
<defs>
<clipPath id="clip0_220_13882">
<rect width="24.8587" height="24.8587" fill="white" transform="translate(0 0.791016)"/>
</clipPath>
</defs>
</svg>
