<svg width="60" height="60" viewBox="0 0 60 60" fill="none" xmlns="http://www.w3.org/2000/svg">
<rect x="0.5" y="0.5" width="59" height="59" rx="11.5" stroke="white" stroke-opacity="0.35"/>
<path d="M34.3618 30C34.3618 32.4052 32.4052 34.3618 30 34.3618C27.5948 34.3618 25.6382 32.4052 25.6382 30C25.6382 27.5948 27.5948 25.6382 30 25.6382C32.4052 25.6382 34.3618 27.5948 34.3618 30ZM30 15.5C22.0051 15.5 15.5 22.0051 15.5 30C15.5 37.9949 22.0051 44.5 30 44.5C32.929 44.5 35.7538 43.6282 38.168 41.9779L38.2097 41.9489L36.2558 39.6778L36.2232 39.6996C34.3645 40.8949 32.2122 41.5275 30 41.5275C23.6436 41.5275 18.4725 36.3564 18.4725 30C18.4725 23.6436 23.6436 18.4725 30 18.4725C36.3564 18.4725 41.5275 23.6436 41.5275 30C41.5275 30.8238 41.436 31.6575 41.2556 32.4777C40.8913 33.9739 39.8437 34.4325 39.0571 34.3717C38.2659 34.3074 37.3406 33.7437 37.3343 32.3644V31.3132V30C37.3343 25.9554 34.0446 22.6657 30 22.6657C25.9554 22.6657 22.6657 25.9554 22.6657 30C22.6657 34.0446 25.9554 37.3343 30 37.3343C31.9648 37.3343 33.8072 36.5658 35.1964 35.1693C36.0039 36.4262 37.3207 37.2147 38.8187 37.3343C38.9474 37.3452 39.0788 37.3506 39.2093 37.3506C40.2633 37.3506 41.3091 36.9981 42.1519 36.3573C43.021 35.6976 43.6699 34.7433 44.0287 33.5969C44.0858 33.412 44.191 32.9879 44.1919 32.9852L44.1946 32.9698C44.4058 32.0499 44.5 31.1328 44.5 30C44.5 22.0051 37.9949 15.5 30 15.5" fill="white"/>
</svg>
