<svg width="48" height="48" viewBox="0 0 48 48" fill="none" xmlns="http://www.w3.org/2000/svg">
<path fill-rule="evenodd" clip-rule="evenodd" d="M23.4774 14.0695C23.8197 13.9768 24.1805 13.9768 24.5228 14.0695C24.9581 14.1874 25.3181 14.4913 25.5964 14.7078L32.3787 19.9829C32.7873 20.3008 33.148 20.5703 33.4121 20.9274C33.6291 21.2207 33.7907 21.5513 33.8891 21.9027C34.0088 22.3304 34.0001 22.7805 34.0001 23.2982V30.5717C34.0002 31.0988 34.0002 31.5536 33.9696 31.9282C33.9373 32.3235 33.866 32.7167 33.6732 33.0951C33.3855 33.6596 32.9266 34.1185 32.3621 34.4062C31.9837 34.599 31.5905 34.6703 31.1952 34.7026C30.8206 34.7332 30.3658 34.7332 29.8387 34.7331H18.1616C17.6344 34.7332 17.1797 34.7332 16.8051 34.7026C16.4098 34.6703 16.0165 34.599 15.6382 34.4062C15.0737 34.1185 14.6147 33.6596 14.3271 33.0951C14.1343 32.7167 14.063 32.3235 14.0307 31.9282C14.0001 31.5536 14.0001 31.0988 14.0001 30.5717L14.0001 23.2982C14.0001 22.7805 13.9915 22.3304 14.1112 21.9027C14.2095 21.5513 14.3712 21.2207 14.5882 20.9274C14.8523 20.5703 15.2129 20.3008 15.6216 19.9829L22.4039 14.7078C22.6822 14.4913 23.0421 14.1874 23.4774 14.0695ZM22.0001 32.7331H26.0001V26.3331C26.0001 26.0248 25.9987 25.853 25.9887 25.7446C25.8803 25.7346 25.7085 25.7331 25.4001 25.7331H22.6001C22.2918 25.7331 22.12 25.7346 22.0116 25.7446C22.0016 25.853 22.0001 26.0248 22.0001 26.3331V32.7331ZM28.0001 32.7331L28.0001 26.3013C28.0002 26.0489 28.0002 25.8031 27.9832 25.5949C27.9645 25.3663 27.9204 25.0966 27.7822 24.8252C27.5904 24.4488 27.2844 24.1429 26.9081 23.9511C26.6367 23.8128 26.367 23.7688 26.1384 23.7501C25.9302 23.7331 25.6844 23.7331 25.432 23.7331H22.5683C22.3159 23.7331 22.0701 23.7331 21.8619 23.7501C21.6333 23.7688 21.3636 23.8128 21.0922 23.9511C20.7158 24.1429 20.4099 24.4488 20.2181 24.8252C20.0798 25.0966 20.0358 25.3663 20.0171 25.5949C20.0001 25.8031 20.0001 26.0489 20.0001 26.3012L20.0001 32.7331H18.2001C17.6236 32.7331 17.2513 32.7324 16.968 32.7092C16.6963 32.687 16.5956 32.6493 16.5461 32.6241C16.358 32.5283 16.205 32.3753 16.1091 32.1871C16.0839 32.1377 16.0463 32.037 16.0241 31.7653C16.0009 31.482 16.0001 31.1097 16.0001 30.5331V23.2982C16.0001 22.6672 16.0088 22.543 16.0372 22.4418C16.0699 22.3246 16.1238 22.2145 16.1962 22.1167C16.2586 22.0322 16.3514 21.949 16.8495 21.5616L23.6318 16.2865C23.825 16.1362 23.9294 16.0563 24.0001 16.0098C24.0709 16.0563 24.1753 16.1362 24.3685 16.2865L31.1508 21.5616C31.6489 21.949 31.7416 22.0322 31.8041 22.1167C31.8765 22.2145 31.9303 22.3246 31.9631 22.4418C31.9915 22.543 32.0001 22.6672 32.0001 23.2982V30.5331C32.0001 31.1097 31.9994 31.482 31.9762 31.7653C31.954 32.037 31.9163 32.1377 31.8911 32.1871C31.7953 32.3753 31.6423 32.5283 31.4541 32.6241C31.4047 32.6493 31.304 32.687 31.0323 32.7092C30.749 32.7324 30.3767 32.7331 29.8001 32.7331H28.0001Z" fill="#C1EF00"/>
</svg>
