<svg width="13" height="14" viewBox="0 0 13 14" fill="none" xmlns="http://www.w3.org/2000/svg">
<path fill-rule="evenodd" clip-rule="evenodd" d="M6.84304 2.3951C5.71153 2.3951 4.79426 3.31237 4.79426 4.44388C4.79426 5.57539 5.71153 6.49266 6.84304 6.49266C7.97455 6.49266 8.89182 5.57539 8.89182 4.44388C8.89182 3.31237 7.97455 2.3951 6.84304 2.3951ZM3.12962 4.44388C3.12962 2.39302 4.79218 0.730469 6.84304 0.730469C8.8939 0.730469 10.5565 2.39302 10.5565 4.44388C10.5565 6.49475 8.8939 8.1573 6.84304 8.1573C4.79218 8.1573 3.12962 6.49475 3.12962 4.44388ZM5.11215 8.73346C5.15494 8.73349 5.19836 8.73351 5.24243 8.73351H8.44365C8.48772 8.73351 8.53114 8.73349 8.57393 8.73346C9.33994 8.73302 9.90464 8.73269 10.389 8.87963C11.4735 9.20861 12.3222 10.0573 12.6512 11.1418C12.7981 11.6262 12.7978 12.1909 12.7974 12.9569C12.7973 12.9997 12.7973 13.0431 12.7973 13.0872C12.7973 13.5469 12.4247 13.9195 11.965 13.9195C11.5053 13.9195 11.1327 13.5469 11.1327 13.0872C11.1327 12.1331 11.1236 11.8406 11.0582 11.625C10.8906 11.0725 10.4583 10.6402 9.90582 10.4726C9.69022 10.4072 9.3977 10.3981 8.44365 10.3981H5.24243C4.28837 10.3981 3.99586 10.4072 3.78026 10.4726C3.22778 10.6402 2.79543 11.0725 2.62784 11.625C2.56244 11.8406 2.5534 12.1331 2.5534 13.0872C2.5534 13.5469 2.18076 13.9195 1.72109 13.9195C1.26141 13.9195 0.88877 13.5469 0.88877 13.0872C0.88877 13.0431 0.888745 12.9997 0.88872 12.9569C0.888274 12.1909 0.887945 11.6262 1.03489 11.1418C1.36387 10.0573 2.21254 9.20861 3.29704 8.87963C3.78143 8.73269 4.34614 8.73302 5.11215 8.73346Z" fill="#FA8F21"/>
</svg>
