<svg width="48" height="48" viewBox="0 0 48 48" fill="none" xmlns="http://www.w3.org/2000/svg">
<path fill-rule="evenodd" clip-rule="evenodd" d="M24 20.25C23.0054 20.25 22.0516 20.6451 21.3483 21.3483C20.6451 22.0516 20.25 23.0054 20.25 24C20.25 24.9946 20.6451 25.9484 21.3483 26.6517C22.0516 27.3549 23.0054 27.75 24 27.75C24.9946 27.75 25.9484 27.3549 26.6517 26.6517C27.3549 25.9484 27.75 24.9946 27.75 24C27.75 23.0054 27.3549 22.0516 26.6517 21.3483C25.9484 20.6451 24.9946 20.25 24 20.25ZM21.75 24C21.75 23.4033 21.9871 22.831 22.409 22.409C22.831 21.9871 23.4033 21.75 24 21.75C24.5967 21.75 25.169 21.9871 25.591 22.409C26.0129 22.831 26.25 23.4033 26.25 24C26.25 24.5967 26.0129 25.169 25.591 25.591C25.169 26.0129 24.5967 26.25 24 26.25C23.4033 26.25 22.831 26.0129 22.409 25.591C21.9871 25.169 21.75 24.5967 21.75 24Z" fill="white"/>
<path fill-rule="evenodd" clip-rule="evenodd" d="M23.9738 13.25C23.5288 13.25 23.1578 13.25 22.8538 13.27C22.543 13.2825 22.2365 13.3467 21.9468 13.46C21.613 13.5981 21.3098 13.8006 21.0543 14.0559C20.7988 14.3112 20.5961 14.6143 20.4578 14.948C20.3128 15.298 20.2738 15.668 20.2578 16.07C20.256 16.217 20.217 16.3611 20.1444 16.4889C20.0719 16.6168 19.9681 16.7241 19.8428 16.801C19.7136 16.8713 19.5687 16.9077 19.4217 16.9069C19.2746 16.906 19.1301 16.8679 19.0018 16.796C18.6458 16.608 18.3058 16.457 17.9298 16.407C17.5717 16.3599 17.2079 16.3838 16.8591 16.4773C16.5103 16.5708 16.1833 16.7321 15.8968 16.952C15.6542 17.1465 15.4457 17.38 15.2798 17.643C15.1098 17.897 14.9238 18.218 14.7018 18.603L14.6768 18.647C14.4538 19.032 14.2688 19.353 14.1348 19.627C13.9948 19.913 13.8848 20.195 13.8448 20.507C13.7494 21.23 13.9451 21.9613 14.3888 22.54C14.6198 22.841 14.9208 23.06 15.2608 23.274C15.3874 23.3491 15.4929 23.4551 15.5674 23.582C15.642 23.709 15.683 23.8528 15.6868 24C15.683 24.1472 15.642 24.291 15.5674 24.418C15.4929 24.5449 15.3874 24.6509 15.2608 24.726C14.9208 24.94 14.6208 25.159 14.3888 25.46C14.1689 25.7465 14.0076 26.0735 13.9141 26.4223C13.8206 26.7711 13.7967 27.1349 13.8438 27.493C13.8848 27.805 13.9938 28.087 14.1338 28.373C14.2688 28.647 14.4538 28.968 14.6768 29.353L14.7018 29.397C14.9238 29.782 15.1098 30.103 15.2798 30.357C15.4568 30.62 15.6468 30.857 15.8968 31.047C16.1832 31.2671 16.5102 31.4285 16.859 31.5222C17.2078 31.6159 17.5717 31.64 17.9298 31.593C18.3058 31.543 18.6458 31.393 19.0018 31.204C19.13 31.1323 19.2743 31.0943 19.4212 31.0934C19.568 31.0925 19.7127 31.1289 19.8418 31.199C19.9681 31.2749 20.0728 31.382 20.1458 31.51C20.2188 31.638 20.2577 31.7826 20.2588 31.93C20.2738 32.332 20.3128 32.702 20.4588 33.052C20.5969 33.3858 20.7994 33.689 21.0547 33.9445C21.31 34.2 21.6131 34.4027 21.9468 34.541C22.2368 34.661 22.5368 34.708 22.8538 34.729C23.1578 34.75 23.5288 34.75 23.9738 34.75H24.0238C24.4688 34.75 24.8398 34.75 25.1438 34.73C25.4618 34.708 25.7608 34.661 26.0508 34.54C26.3845 34.4019 26.6878 34.1994 26.9433 33.9441C27.1988 33.6888 27.4015 33.3857 27.5398 33.052C27.6848 32.702 27.7238 32.332 27.7398 31.93C27.7414 31.7828 27.7803 31.6385 27.8529 31.5105C27.9255 31.3825 28.0294 31.275 28.1548 31.198C28.2841 31.1278 28.429 31.0916 28.5761 31.0926C28.7231 31.0937 28.8676 31.132 28.9958 31.204C29.3518 31.392 29.6918 31.543 30.0678 31.592C30.7908 31.6874 31.5221 31.4917 32.1008 31.048C32.3508 30.856 32.5408 30.62 32.7178 30.357C32.8878 30.103 33.0738 29.782 33.2958 29.397L33.3208 29.353C33.5438 28.968 33.7288 28.647 33.8628 28.373C34.0028 28.087 34.1128 27.804 34.1528 27.493C34.2482 26.77 34.0525 26.0387 33.6088 25.46C33.3778 25.159 33.0768 24.94 32.7368 24.726C32.6102 24.6509 32.5047 24.5449 32.4302 24.418C32.3556 24.291 32.3146 24.1472 32.3108 24C32.3108 23.722 32.4628 23.446 32.7368 23.274C33.0768 23.06 33.3768 22.841 33.6088 22.54C33.8287 22.2535 33.99 21.9265 34.0835 21.5777C34.177 21.2289 34.2009 20.8651 34.1538 20.507C34.1067 20.1996 34.0087 19.9022 33.8638 19.627C33.693 19.2948 33.5119 18.968 33.3208 18.647L33.2958 18.603C33.1131 18.2771 32.9204 17.9569 32.7178 17.643C32.5518 17.3804 32.3433 17.1472 32.1008 16.953C31.8144 16.7329 31.4874 16.5715 31.1386 16.4778C30.7898 16.3841 30.4259 16.36 30.0678 16.407C29.6918 16.457 29.3518 16.607 28.9958 16.796C28.8676 16.8677 28.7233 16.9057 28.5764 16.9066C28.4296 16.9075 28.2849 16.8711 28.1558 16.801C28.0301 16.7244 27.926 16.6171 27.853 16.4893C27.7801 16.3614 27.7408 16.2172 27.7388 16.07C27.7238 15.668 27.6848 15.298 27.5388 14.948C27.4007 14.6142 27.1982 14.311 26.9429 14.0555C26.6876 13.8 26.3845 13.5973 26.0508 13.459C25.7608 13.339 25.4608 13.292 25.1438 13.271C24.8398 13.25 24.4688 13.25 24.0238 13.25H23.9738ZM22.5208 14.845C22.5978 14.813 22.7148 14.784 22.9558 14.767C23.2028 14.75 23.5228 14.75 23.9988 14.75C24.4748 14.75 24.7948 14.75 25.0418 14.767C25.2828 14.784 25.3998 14.813 25.4768 14.845C25.7838 14.972 26.0268 15.215 26.1538 15.522C26.1938 15.618 26.2268 15.769 26.2398 16.126C26.2698 16.918 26.6788 17.681 27.4048 18.1C28.1308 18.519 28.9958 18.492 29.6968 18.122C30.0128 17.955 30.1598 17.908 30.2638 17.895C30.5924 17.8516 30.9247 17.9404 31.1878 18.142C31.2538 18.193 31.3378 18.28 31.4728 18.48C31.6118 18.686 31.7718 18.963 32.0098 19.375C32.2478 19.787 32.4068 20.065 32.5158 20.287C32.6228 20.504 32.6558 20.62 32.6658 20.703C32.7092 21.0316 32.6204 21.3639 32.4188 21.627C32.3548 21.71 32.2408 21.814 31.9388 22.004C31.2668 22.426 30.8108 23.162 30.8108 24C30.8108 24.838 31.2668 25.574 31.9388 25.996C32.2408 26.186 32.3548 26.29 32.4188 26.373C32.6208 26.636 32.7088 26.968 32.6658 27.297C32.6558 27.38 32.6218 27.497 32.5158 27.713C32.4068 27.936 32.2478 28.213 32.0098 28.625C31.7718 29.037 31.6108 29.314 31.4728 29.52C31.3378 29.72 31.2538 29.807 31.1878 29.858C30.9247 30.0596 30.5924 30.1484 30.2638 30.105C30.1598 30.092 30.0138 30.045 29.6968 29.878C28.9968 29.508 28.1308 29.48 27.4048 29.899C26.6788 30.318 26.2698 31.082 26.2398 31.874C26.2268 32.231 26.1938 32.382 26.1538 32.478C26.091 32.6298 25.9988 32.7677 25.8827 32.8839C25.7665 33.0001 25.6286 33.0922 25.4768 33.155C25.3998 33.187 25.2828 33.216 25.0418 33.233C24.7948 33.25 24.4748 33.25 23.9988 33.25C23.5228 33.25 23.2028 33.25 22.9558 33.233C22.7148 33.216 22.5978 33.187 22.5208 33.155C22.369 33.0922 22.2311 33.0001 22.1149 32.8839C21.9987 32.7677 21.9066 32.6298 21.8438 32.478C21.8038 32.382 21.7708 32.231 21.7578 31.874C21.7278 31.082 21.3188 30.319 20.5928 29.9C19.8668 29.481 19.0018 29.508 18.3008 29.878C17.9848 30.045 17.8378 30.092 17.7338 30.105C17.4052 30.1484 17.0729 30.0596 16.8098 29.858C16.7438 29.807 16.6598 29.72 16.5248 29.52C16.3367 29.2272 16.1576 28.9288 15.9878 28.625C15.7498 28.213 15.5908 27.935 15.4818 27.713C15.3748 27.496 15.3418 27.38 15.3318 27.297C15.2884 26.9684 15.3772 26.6361 15.5788 26.373C15.6428 26.29 15.7568 26.186 16.0588 25.996C16.7308 25.574 17.1868 24.838 17.1868 24C17.1868 23.162 16.7308 22.426 16.0588 22.004C15.7568 21.814 15.6428 21.71 15.5788 21.627C15.3772 21.3639 15.2884 21.0316 15.3318 20.703C15.3418 20.62 15.3758 20.503 15.4818 20.287C15.5908 20.064 15.7498 19.787 15.9878 19.375C16.2258 18.963 16.3868 18.686 16.5248 18.48C16.6598 18.28 16.7438 18.193 16.8098 18.142C17.0729 17.9404 17.4052 17.8516 17.7338 17.895C17.8378 17.908 17.9838 17.955 18.3008 18.122C19.0008 18.492 19.8668 18.52 20.5928 18.1C21.3188 17.681 21.7278 16.918 21.7578 16.126C21.7708 15.769 21.8038 15.618 21.8438 15.522C21.9708 15.215 22.2138 14.972 22.5208 14.845Z" fill="white"/>
</svg>
