<svg width="12" height="13" viewBox="0 0 12 13" fill="none" xmlns="http://www.w3.org/2000/svg">
<path d="M5.54436 1.09065C5.68526 0.791246 5.75571 0.641542 5.85135 0.593711C5.93456 0.552096 6.03124 0.552096 6.11445 0.593711C6.21009 0.641542 6.28054 0.791246 6.42144 1.09065L7.7582 3.93121C7.7998 4.0196 7.8206 4.0638 7.85099 4.09811C7.87791 4.1285 7.91018 4.15311 7.94604 4.1706C7.98653 4.19035 8.03302 4.19748 8.12601 4.21173L11.1162 4.67016C11.431 4.71843 11.5885 4.74257 11.6613 4.82324C11.7247 4.89342 11.7545 4.98986 11.7425 5.08571C11.7286 5.19587 11.6146 5.31232 11.3867 5.54521L9.22378 7.75486C9.15635 7.82374 9.12264 7.85818 9.10089 7.89916C9.08163 7.93544 9.06927 7.9753 9.06451 8.01653C9.05913 8.06309 9.06708 8.11174 9.08299 8.20904L9.59333 11.3301C9.64716 11.6593 9.67407 11.8238 9.62349 11.9215C9.57948 12.0065 9.50126 12.0661 9.41061 12.0837C9.30641 12.104 9.1655 12.0263 8.88368 11.8708L6.21053 10.3963C6.12724 10.3503 6.0856 10.3274 6.04172 10.3183C6.00288 10.3104 5.96292 10.3104 5.92407 10.3183C5.8802 10.3274 5.83856 10.3503 5.75527 10.3963L3.08212 11.8708C2.8003 12.0263 2.65938 12.104 2.55519 12.0837C2.46454 12.0661 2.38631 12.0065 2.34231 11.9215C2.29173 11.8238 2.31864 11.6593 2.37247 11.3301L2.88281 8.20904C2.89872 8.11174 2.90667 8.06309 2.90129 8.01653C2.89652 7.9753 2.88417 7.93544 2.86491 7.89916C2.84315 7.85818 2.80944 7.82374 2.74202 7.75485L0.579146 5.54521C0.351186 5.31232 0.237206 5.19587 0.223336 5.08571C0.211269 4.98986 0.241081 4.89342 0.304474 4.82324C0.377334 4.74257 0.534771 4.71843 0.849646 4.67016L3.83978 4.21173C3.93277 4.19748 3.97927 4.19035 4.01976 4.1706C4.05561 4.15311 4.08789 4.1285 4.1148 4.09811C4.1452 4.0638 4.166 4.0196 4.20759 3.93121L5.54436 1.09065Z" fill="#C1EF00"/>
</svg>
