<svg width="48" height="48" viewBox="0 0 48 48" fill="none" xmlns="http://www.w3.org/2000/svg">
<path fill-rule="evenodd" clip-rule="evenodd" d="M24 17.059L31.7639 20.941C29.176 22.235 26.588 23.529 24 24.8229C21.412 23.529 18.824 22.235 16.2361 20.941L24 17.059ZM16 23.059L13.5528 21.8354C13.214 21.666 13 21.3198 13 20.941C13 20.5622 13.214 20.2159 13.5528 20.0466L23.195 15.2254C23.2744 15.1858 23.4847 15.0705 23.7234 15.0257C23.9062 14.9914 24.0938 14.9914 24.2766 15.0257C24.5153 15.0705 24.7257 15.1858 24.805 15.2254L34.4472 20.0466C34.786 20.2159 35 20.5622 35 20.941C35 21.3198 34.786 21.666 34.4472 21.8354L32 23.059C32 24.8819 31.9932 26.7049 32.0002 28.5278C32.0012 28.8038 32.0026 29.1508 31.8907 29.4751C31.794 29.7553 31.6363 30.0106 31.4288 30.2224C31.1888 30.4675 30.8779 30.6215 30.6305 30.744C28.8046 31.6483 26.9853 32.5664 25.1628 33.4776C24.9523 33.5829 24.6763 33.731 24.3688 33.7887C24.1251 33.8344 23.8749 33.8344 23.6312 33.7887C23.3237 33.731 23.0478 33.5829 22.8372 33.4776C21.0147 32.5664 19.1954 31.6483 17.3695 30.744C17.1221 30.6215 16.8112 30.4675 16.5712 30.2224C16.3637 30.0106 16.206 29.7553 16.1093 29.4751C15.9974 29.1508 15.9988 28.8038 15.9998 28.5278C16.0067 26.7049 16 24.8819 16 23.059ZM18 24.059V28.4521C18 28.8737 17.9546 28.8002 18.3317 28.9888L23.7317 31.6888C24.0308 31.8383 23.9692 31.8383 24.2683 31.6888L29.6683 28.9888C30.0454 28.8002 30 28.8737 30 28.4521V24.059L24.805 26.6565C24.7257 26.6962 24.5153 26.8115 24.2766 26.8562C24.0938 26.8905 23.9062 26.8905 23.7234 26.8562C23.4847 26.8115 23.2743 26.6962 23.195 26.6565L18 24.059Z" fill="white"/>
</svg>
