<svg width="294" height="241" viewBox="0 0 294 241" fill="none" xmlns="http://www.w3.org/2000/svg">
<rect x="89.563" y="27.9922" width="27.7147" height="95.5735" rx="13.8574" fill="#C1EF00"/>
<rect x="169.896" y="4.79883" width="27.7147" height="130.764" rx="13.8574" fill="#C1EF00"/>
<rect x="213.273" y="16.3965" width="27.7147" height="109.17" rx="13.8574" fill="#FF5045"/>
<rect x="9.22998" y="68.7793" width="27.7147" height="54.7848" rx="13.8574" fill="#FF5045"/>
<rect x="49.3945" y="56.7832" width="27.7147" height="83.1769" rx="13.8574" fill="#C1EF00"/>
<path d="M129.729 70.6406C129.729 62.9874 135.933 56.7832 143.586 56.7832C151.24 56.7832 157.444 62.9874 157.444 70.6406V121.704C157.444 129.357 151.24 135.561 143.586 135.561C135.933 135.561 129.729 129.357 129.729 121.704V70.6406Z" fill="#FF5045"/>
<rect x="256.653" width="28.1164" height="132.363" rx="14.0582" fill="#C1EF00"/>
<path d="M19.0907 213.961V164.005H30.7234L51.4195 197.975H45.282L65.4072 164.005H77.0398L77.1825 213.961H64.1939L64.0512 183.773H66.2635L51.2054 209.037H44.9252L29.4388 183.773H32.1507V213.961H19.0907ZM99.8127 213.961V192.837L103.096 201.329L80.758 164.005H95.6735L111.802 191.053H103.167L119.367 164.005H133.069L110.803 201.329L113.943 192.837V213.961H99.8127ZM170.563 185.914H193.614V196.833H170.563V185.914ZM171.562 213.961H157.432V164.005H196.611V174.924H171.562V213.961ZM203.22 213.961V164.005H217.351V213.961H203.22ZM227.404 213.961V164.005H239.036L266.583 197.261H261.088V164.005H274.933V213.961H263.301L235.753 180.704H241.249V213.961H227.404Z" fill="white"/>
</svg>
